<svg xmlns="http://www.w3.org/2000/svg" width="21" height="20" fill="none" viewBox="0 0 23 21"><g id="call"><path id="Vector" fill="#181F29" d="M17.2697 19.4628C16.4536 19.4628 15.3072 19.181 13.5906 18.2656C11.5032 17.1482 9.88855 16.1166 7.8124 14.14C5.81066 12.2304 4.83654 10.9941 3.4732 8.62601C1.93302 5.95224 2.19557 4.5507 2.48906 3.9517C2.83857 3.23576 3.35447 2.80756 4.0213 2.38255C4.40005 2.14568 4.80087 1.94262 5.21866 1.77596C5.26047 1.7588 5.29935 1.74244 5.33405 1.72767C5.541 1.63868 5.85455 1.50419 6.25172 1.64786C6.51678 1.74284 6.75341 1.93719 7.12383 2.28637C7.88347 3.00151 8.92155 4.5942 9.3045 5.37638C9.56162 5.90355 9.73178 6.25154 9.73219 6.64183C9.73219 7.09877 9.49138 7.45115 9.19915 7.83146C9.14438 7.9029 9.09003 7.97114 9.03735 8.03738C8.7192 8.43646 8.64938 8.55179 8.69537 8.75771C8.7886 9.17155 9.48386 10.4035 10.6265 11.4917C11.7691 12.58 13.0224 13.2018 13.4577 13.2904C13.6826 13.3362 13.8059 13.2668 14.2374 12.9523C14.2992 12.9072 14.3628 12.8606 14.4293 12.8139C14.8749 12.4974 15.2269 12.2735 15.6944 12.2735H15.6969C16.1036 12.2735 16.4519 12.4419 17.0288 12.7197C17.7814 13.082 19.5001 14.0602 20.2539 14.7861C20.6205 15.1389 20.825 15.3639 20.9249 15.6165C21.0754 15.9969 20.9337 16.295 20.8413 16.4945C20.8258 16.5276 20.8087 16.5639 20.7907 16.6042C20.6147 17.0023 20.4007 17.3841 20.1514 17.7448C19.707 18.3793 19.2568 18.8706 18.5051 19.2046C18.1191 19.3789 17.6966 19.4672 17.2697 19.4628Z"/></g></svg>